<svg xmlns="http://www.w3.org/2000/svg" viewBox="0 0 64 64" id="business-group">
  <path fill="#efcf8f" d="M10.23 22.63h7.12v5.1h-7.12z"></path>
  <path fill="#ffe09c" d="M18.79 21.21c-.84 2.72-2.71 4.79-4.96 4.79s-4.19-2.12-5.03-4.84c-1.11-.79-1.36-3.64-.43-3.61.21-3.96 2.57-7.08 5.46-7.08s5.02 3.13 5.22 7.1c1.07-.42.96 2.91-.26 3.64z"></path>
  <path fill="#3a556d" d="M18.33 19.58h.31c.55-1.98.89-4.25.7-6.08-.45-2.86-2.51-4.27-5.17-4.04-1.67.16-2.84.68-3.37 1.66-1.35-.83-2.31-.38-2.7 1.96-.31 2.23.01 4.52.46 6.55l.38-.03c-.73-4.9 5.34-7.33 8.53-3.7l-.27-1.05c1 .99 1.36 2.76 1.13 4.73z"></path>
  <path fill="#f2f2f0" d="M17.9 26c-.01 4.67-2.22 10.58-4.11 16.49C11.9 36.58 9.69 30.67 9.68 26l2.75 4.16 1.36-2.42 1.36 2.42L17.9 26z"></path>
  <path fill="#da6c62" d="M16.07 42.48h-4.61l1.57-12.05h1.47z"></path>
  <path fill="#da6c62" d="M14.52 30.43h-1.46l-1.66-2.69h4.78z"></path>
  <path fill="#e0e0de" d="m13.79 27.73-1.36 2.43L9.68 26l.55-.87zM17.9 26l-2.75 4.16-1.36-2.43 3.56-2.6z"></path>
  <path fill="#50a0a0" d="m8.66 33.72.66-2.62-1.34-.7-.23-2.95L9.68 26c.01 4.67 2.22 10.58 4.11 16.49-2.13-2.59-3.88-5.47-5.13-8.77z"></path>
  <path fill="#5badaf" d="M13.79 42.48H1.54c-.95 0-1.67-.85-1.52-1.78l1.3-8.02c.17-1.08.8-2.03 1.73-2.61 1.3-.82 2.62-1.74 4.7-2.61l.23 2.95 1.34.7-.66 2.62c1.25 3.29 3 6.17 5.13 8.75z"></path>
  <path fill="#50a0a0" d="m19.6 30.4-1.34.7.66 2.62c-1.25 3.3-3 6.18-5.13 8.76 1.89-5.91 4.1-11.81 4.11-16.49l1.93 1.46-.23 2.95z"></path>
  <path fill="#5badaf" d="M13.79 42.48c2.13-2.58 3.88-5.46 5.13-8.76l-.66-2.62 1.34-.7.23-2.95c2.08.87 3.4 1.79 4.7 2.61.92.58 1.55 1.53 1.73 2.61l1.3 8.02c.15.93-.57 1.78-1.52 1.78H13.79z"></path>
  <path fill="#efcf8f" d="M46.66 22.63h7.12v5.1h-7.12z"></path>
  <path fill="#ffe09c" d="M55.22 21.21c-.84 2.72-2.71 4.79-4.96 4.79s-4.19-2.12-5.03-4.84c-1.11-.79-1.36-3.64-.43-3.61.21-3.96 2.57-7.08 5.46-7.08s5.02 3.13 5.22 7.1c1.07-.42.96 2.91-.26 3.64z"></path>
  <path fill="#3a556d" d="M54.76 19.58h.31c.55-1.98.89-4.25.7-6.08-.45-2.86-2.51-4.27-5.17-4.04-1.67.16-2.84.68-3.37 1.66-1.35-.83-2.31-.38-2.7 1.96-.31 2.23.01 4.52.46 6.55l.38-.03c-.73-4.9 5.34-7.33 8.53-3.7l-.27-1.05c1 .99 1.36 2.76 1.13 4.73z"></path>
  <path fill="#f2f2f0" d="M54.33 26c-.01 4.67-2.22 10.58-4.11 16.49-1.89-5.9-4.1-11.81-4.11-16.49l2.75 4.16 1.36-2.42 1.36 2.42L54.33 26z"></path>
  <path fill="#da6c62" d="M52.5 42.48h-4.61l1.58-12.05h1.46z"></path>
  <path fill="#da6c62" d="M50.95 30.43h-1.46l-1.66-2.69h4.78z"></path>
  <path fill="#e0e0de" d="m50.22 27.73-1.36 2.43L46.11 26l.55-.87zM54.33 26l-2.75 4.16-1.36-2.43 3.56-2.6z"></path>
  <path fill="#50a0a0" d="m45.09 33.72.66-2.62-1.34-.7-.23-2.95L46.11 26c.01 4.67 2.22 10.58 4.11 16.49-2.13-2.59-3.88-5.47-5.13-8.77z"></path>
  <path fill="#5badaf" d="M50.22 42.48H37.97c-.95 0-1.67-.85-1.52-1.78l1.3-8.02c.17-1.08.8-2.03 1.73-2.61 1.3-.82 2.62-1.74 4.7-2.61l.23 2.95 1.34.7-.66 2.62c1.25 3.29 3 6.17 5.13 8.75z"></path>
  <path fill="#50a0a0" d="m56.03 30.4-1.34.7.66 2.62c-1.25 3.3-3 6.18-5.13 8.76 1.89-5.91 4.1-11.81 4.11-16.49l1.93 1.46-.23 2.95z"></path>
  <path fill="#5badaf" d="M50.22 42.48c2.13-2.58 3.88-5.46 5.13-8.76l-.66-2.62 1.34-.7.23-2.95c2.08.87 3.4 1.79 4.7 2.61.92.58 1.55 1.53 1.73 2.61l1.3 8.02c.15.93-.57 1.78-1.52 1.78H50.22z"></path>
  <path fill="#3a556d" d="M42.07 44.85H21.93l1.35-17.17A8.744 8.744 0 0 1 32 19.62c4.56 0 8.36 3.51 8.72 8.06l1.35 17.17z"></path>
  <path fill="#f2f2f0" d="M32.02 54.55c-1.07-5.07-3.17-11.84-3.03-14.54 0 1.66 1.35 3 3 3 1.66 0 3-1.34 3-3H35c.16 2.69-1.9 9.46-2.98 14.54z"></path>
  <path fill="#f9c76e" d="M32.02 54.55H18.96c-.47 0-.83-.43-.74-.89l1.86-10.05c.12-1.55 4.21-3.35 6.81-3.61H29c-.15 2.71 1.94 9.48 3.02 14.55zm13.01.02-13.01-.02c1.09-5.09 3.15-11.84 2.99-14.55h2.1c2.61.26 6.7 2.06 6.82 3.61l1.86 10.05c.08.46-.28.89-.76.91z"></path>
  <path fill="#e8b360" d="m36.48 44.36-1.17-.19.94 1.2c-1.46 3.15-2.18 5.78-4.22 9.18C33.1 49.47 35.17 42.7 35.01 40c0-.03 0-.06-.01-.08-.04-.5-.16-.84-.38-1 .13.03.26.07.38.11.91.26 1.58.6 2.11.98.01 1.32-.25 2.8-.63 4.35zm-8.72 1.01.93-1.2-1.17.19c-.39-1.55-.65-3.03-.64-4.36.53-.38 1.2-.72 2.11-.98.12-.04.25-.07.38-.11-.23.17-.35.55-.38 1.08V40c-.15 2.71 1.95 9.47 3.02 14.54-2.03-3.4-2.79-6.02-4.25-9.17z"></path>
  <path fill="#efcf8f" d="M35 36.68V40c0 1.66-1.34 3-3 3s-3-1.34-3-3V36.67h6z"></path>
  <path fill="#ffe09c" d="M38.31 32.62c0 4.29-3.17 7.03-6.29 7.03s-6.28-2.82-6.28-7.12c0-.24-.01-.94-.02-1.62-.03-1.83.88-3.56 2.45-4.51 1.07-.65 2.37-1.14 3.85-2.04.66 2.79 1.51 3.6 4.9 4.73a2.02 2.02 0 0 1 1.39 1.92v1.61z"></path>
</svg>
